A1																		
version=1																		
nRows=31
nColumns=19																		
inDegrees=yes																		
endheader
time	ground_force1_vx	ground_force1_vy	ground_force1_vz	ground_force1_px	ground_force1_py	ground_force1_pz	ground_torque1_x	ground_torque1_y	ground_torque1_z	ground_force2_vx	ground_force2_vy	ground_force2_vz	ground_force2_px	ground_force2_py	ground_force2_pz	ground_torque2_x	ground_torque2_y	ground_torque2_z
179.00000000	0.00000000	0.00000000	0.00000000	0.88900000	0.00000000	-0.84017500	0.00000000	0.00000000	0.00000000	-136.11467426	903.82969325	-76.13970471	1.27775619	0.00000000	-0.44983866	0.00002139	0.47623352	0.00006275
179.00100000	0.00000000	0.00000000	0.00000000	0.88900000	0.00000000	-0.84017500	0.00000000	0.00000000	0.00000000	-135.61825996	905.19967699	-76.16260904	1.27651462	0.00000000	-0.44960343	0.00002143	0.46921169	0.00006276
179.00200000	0.00000000	0.00000000	0.00000000	0.88900000	0.00000000	-0.84017500	0.00000000	0.00000000	0.00000000	-135.09709295	906.45849047	-76.17064983	1.27528930	0.00000000	-0.44937767	0.00002148	0.46213889	0.00006276
179.00300000	0.00000000	0.00000000	0.00000000	0.88900000	0.00000000	-0.84017500	0.00000000	0.00000000	0.00000000	-134.55175472	907.60655369	-76.16417611	1.27408031	0.00000000	-0.44916129	0.00002152	0.45502073	0.00006276
179.00400000	0.00000000	0.00000000	0.00000000	0.88900000	0.00000000	-0.84017500	0.00000000	0.00000000	0.00000000	-133.98283366	908.64433137	-76.14354417	1.27288769	0.00000000	-0.44895418	0.00002155	0.44786271	0.00006274
179.00500000	0.00000000	0.00000000	0.00000000	0.88900000	0.00000000	-0.84017500	0.00000000	0.00000000	0.00000000	-133.39092435	909.57233269	-76.10911693	1.27171149	0.00000000	-0.44875622	0.00002158	0.44067019	0.00006272
179.00600000	0.00000000	0.00000000	0.00000000	0.88900000	0.00000000	-0.84017500	0.00000000	0.00000000	0.00000000	-132.77662694	910.39111104	-76.06126338	1.27055170	0.00000000	-0.44856729	0.00002161	0.43344843	0.00006269
179.00700000	0.00000000	0.00000000	0.00000000	0.88900000	0.00000000	-0.84017500	0.00000000	0.00000000	0.00000000	-132.14054648	911.10126368	-76.00035792	1.26940831	0.00000000	-0.44838725	0.00002164	0.42620253	0.00006265
179.00800000	0.00000000	0.00000000	0.00000000	0.88900000	0.00000000	-0.84017500	0.00000000	0.00000000	0.00000000	-131.48329231	911.70343145	-75.92677982	1.26828126	0.00000000	-0.44821595	0.00002166	0.41893745	0.00006261
179.00900000	0.00000000	0.00000000	0.00000000	0.88900000	0.00000000	-0.84017500	0.00000000	0.00000000	0.00000000	-130.80547737	912.19829840	-75.84091261	1.26717049	0.00000000	-0.44805324	0.00002168	0.41165802	0.00006255
179.01000000	0.00000000	0.00000000	0.00000000	0.88900000	0.00000000	-0.84017500	0.00000000	0.00000000	0.00000000	-130.10771765	912.58659146	-75.74314347	1.26607591	0.00000000	-0.44789895	0.00002169	0.40436887	0.00006249
179.01100000	0.00000000	0.00000000	0.00000000	0.88900000	0.00000000	-0.84017500	0.00000000	0.00000000	0.00000000	-129.39063152	912.86908000	-75.63386266	1.26499742	0.00000000	-0.44775292	0.00002170	0.39707450	0.00006242
179.01200000	0.00000000	0.00000000	0.00000000	0.88900000	0.00000000	-0.84017500	0.00000000	0.00000000	0.00000000	-128.65483917	913.04657550	-75.51346296	1.26393489	0.00000000	-0.44761495	0.00002170	0.38977921	0.00006235
179.01300000	0.00000000	0.00000000	0.00000000	0.88900000	0.00000000	-0.84017500	0.00000000	0.00000000	0.00000000	-127.90096201	913.11993101	-75.38233908	1.26288816	0.00000000	-0.44748486	0.00002171	0.38248712	0.00006226
179.01400000	0.00000000	0.00000000	0.00000000	0.88900000	0.00000000	-0.84017500	0.00000000	0.00000000	0.00000000	-127.12962210	913.09004081	-75.24088709	1.26185708	0.00000000	-0.44736246	0.00002171	0.37520217	0.00006217
179.01500000	0.00000000	0.00000000	0.00000000	0.88900000	0.00000000	-0.84017500	0.00000000	0.00000000	0.00000000	-126.34144157	912.95783984	-75.08950389	1.26084145	0.00000000	-0.44724754	0.00002170	0.36792808	0.00006208
179.01600000	0.00000000	0.00000000	0.00000000	0.88900000	0.00000000	-0.84017500	0.00000000	0.00000000	0.00000000	-125.53704211	912.72430326	-74.92858667	1.25984108	0.00000000	-0.44713990	0.00002169	0.36066838	0.00006197
179.01700000	0.00000000	0.00000000	0.00000000	0.88900000	0.00000000	-0.84017500	0.00000000	0.00000000	0.00000000	-124.71704442	912.39044588	-74.75853233	1.25885575	0.00000000	-0.44703933	0.00002168	0.35342639	0.00006186
179.01800000	0.00000000	0.00000000	0.00000000	0.88900000	0.00000000	-0.84017500	0.00000000	0.00000000	0.00000000	-123.88206769	911.95732165	-74.57973702	1.25788523	0.00000000	-0.44694562	0.00002166	0.34620522	0.00006174
179.01900000	0.00000000	0.00000000	0.00000000	0.88900000	0.00000000	-0.84017500	0.00000000	0.00000000	0.00000000	-123.03272908	911.42602306	-74.39259562	1.25692927	0.00000000	-0.44685853	0.00002165	0.33900773	0.00006162
179.02000000	0.00000000	0.00000000	0.00000000	0.88900000	0.00000000	-0.84017500	0.00000000	0.00000000	0.00000000	-122.16964327	910.79768056	-74.19750120	1.25598761	0.00000000	-0.44677785	0.00002162	0.33183659	0.00006149
179.02100000	0.00000000	0.00000000	0.00000000	0.88900000	0.00000000	-0.84017500	0.00000000	0.00000000	0.00000000	-121.29342194	910.07346197	-73.99484461	1.25505999	0.00000000	-0.44670334	0.00002160	0.32469423	0.00006135
179.02200000	0.00000000	0.00000000	0.00000000	0.88900000	0.00000000	-0.84017500	0.00000000	0.00000000	0.00000000	-120.40467334	909.25457176	-73.78501394	1.25414610	0.00000000	-0.44663479	0.00002157	0.31758283	0.00006120
179.02300000	0.00000000	0.00000000	0.00000000	0.88900000	0.00000000	-0.84017500	0.00000000	0.00000000	0.00000000	-119.50400185	908.34225049	-73.56839416	1.25324567	0.00000000	-0.44657194	0.00002154	0.31050435	0.00006105
179.02400000	0.00000000	0.00000000	0.00000000	0.88900000	0.00000000	-0.84017500	0.00000000	0.00000000	0.00000000	-118.59200752	907.33777404	-73.34536659	1.25235838	0.00000000	-0.44651457	0.00002150	0.30346052	0.00006090
179.02500000	0.00000000	0.00000000	0.00000000	0.88900000	0.00000000	-0.84017500	0.00000000	0.00000000	0.00000000	-117.66928566	906.24245295	-73.11630854	1.25148391	0.00000000	-0.44646244	0.00002146	0.29645281	0.00006074
179.02600000	0.00000000	0.00000000	0.00000000	0.88900000	0.00000000	-0.84017500	0.00000000	0.00000000	0.00000000	-116.73642648	905.05763167	-72.88159293	1.25062195	0.00000000	-0.44641531	0.00002142	0.28948246	0.00006057
179.02700000	0.00000000	0.00000000	0.00000000	0.88900000	0.00000000	-0.84017500	0.00000000	0.00000000	0.00000000	-115.79401464	903.78468781	-72.64158782	1.24977215	0.00000000	-0.44637294	0.00002137	0.28255047	0.00006039
179.02800000	0.00000000	0.00000000	0.00000000	0.88900000	0.00000000	-0.84017500	0.00000000	0.00000000	0.00000000	-114.84262894	902.42503140	-72.39665614	1.24893418	0.00000000	-0.44633509	0.00002133	0.27565760	0.00006022
179.02900000	0.00000000	0.00000000	0.00000000	0.88900000	0.00000000	-0.84017500	0.00000000	0.00000000	0.00000000	-113.88284192	900.98010402	-72.14715530	1.24810769	0.00000000	-0.44630151	0.00002127	0.26880437	0.00006003
179.03000000	0.00000000	0.00000000	0.00000000	0.88900000	0.00000000	-0.84017500	0.00000000	0.00000000	0.00000000	-112.91521954	899.45137807	-71.89343682	1.24729233	0.00000000	-0.44627197	0.00002122	0.26199104	0.00005984
